<svg xmlns:xlink="http://www.w3.org/1999/xlink" width="39" xmlns="http://www.w3.org/2000/svg" height="39" id="screenshot-a47ffb9a-dc29-80ff-8003-e64cb7813baf" viewBox="0 0 39 39" style="-webkit-print-color-adjust: exact;" fill="none" version="1.1"><g id="shape-a47ffb9a-dc29-80ff-8003-e64cb7813baf"><defs><clipPath class="frame-clip-def frame-clip" id="frame-clip-a47ffb9a-dc29-80ff-8003-e64cb7813baf-rumext-id-1"><rect rx="0" ry="0" x="0" y="0" width="39" height="39" transform="matrix(1.000000, 0.000000, 0.000000, 1.000000, 0.000000, 0.000000)"/></clipPath></defs><g clip-path="url(#frame-clip-a47ffb9a-dc29-80ff-8003-e64cb7813baf-rumext-id-1)" fill="none"><clipPath class="frame-clip-def frame-clip" id="frame-clip-a47ffb9a-dc29-80ff-8003-e64cb7813baf-rumext-id-1"><rect rx="0" ry="0" x="0" y="0" width="39" height="39" transform="matrix(1.000000, 0.000000, 0.000000, 1.000000, 0.000000, 0.000000)"/></clipPath><g class="fills" id="fills-a47ffb9a-dc29-80ff-8003-e64cb7813baf"><rect rx="0" ry="0" x="0" y="0" transform="matrix(1.000000, 0.000000, 0.000000, 1.000000, 0.000000, 0.000000)" width="39" height="39" class="frame-background"/></g><g class="frame-children"><g id="shape-a47ffb9a-dc29-80ff-8003-e64cb7813bb0"><g class="fills" id="fills-a47ffb9a-dc29-80ff-8003-e64cb7813bb0"><path rx="0" ry="0" d="M21.915,1.737L21.915,1.737ZC21.823,1.737,21.777,1.691,21.777,1.600L21.777,0.623C21.778,0.332,21.572,0.080,21.286,0.022C21.034,-0.029,17.673,0.008,17.451,0.135C17.340,0.200,17.279,0.295,17.270,0.422L17.191,1.613C17.185,1.696,17.141,2.444,17.213,9.436C17.213,9.548,17.157,9.605,17.045,9.607L6.125,9.701C6.024,9.701,5.983,9.751,6.007,9.850C7.231,14.867,7.951,21.122,7.466,27.445C7.459,27.538,7.501,27.580,7.592,27.569C10.995,27.155,13.629,26.898,17.056,26.797C17.161,26.793,17.213,26.844,17.213,26.948L17.213,30.306C17.213,30.306,17.171,30.437,17.087,30.444L6.796,31.395C6.763,31.398,6.733,31.417,6.717,31.447C6.701,31.476,6.701,31.512,6.717,31.541C7.733,33.521,8.604,36.661,9.671,38.643C9.767,38.820,18.741,39.174,19.503,38.898C20.303,39.174,29.275,38.683,29.357,38.525C29.864,37.551,30.596,34.923,32.345,31.522C32.383,31.447,32.360,31.405,32.276,31.398L21.928,30.433C21.826,30.424,21.776,30.368,21.777,30.265L21.780,26.907C21.780,26.822,21.822,26.782,21.906,26.786C25.342,26.891,27.986,27.148,31.398,27.558C31.491,27.569,31.534,27.527,31.527,27.434C31.036,20.951,30.353,16.829,32.994,9.858C33.016,9.753,32.974,9.701,32.868,9.701L21.953,9.607C21.836,9.605,21.777,9.546,21.777,9.428L21.777,6.474C21.777,6.360,21.835,6.303,21.950,6.303L25.934,6.303C25.969,6.304,25.222,6.289,25.245,6.262C25.269,6.236,26.061,6.201,26.057,6.166C25.862,4.158,26.109,3.780,26.801,1.892C26.839,1.789,26.804,1.737,26.696,1.737L21.915,1.737Z" style="fill: rgb(255, 255, 255); fill-opacity: 1;"/></g></g></g></g></g></svg>