<svg width="1140" xmlns="http://www.w3.org/2000/svg" height="268" id="screenshot-2d71c175-ab4c-807d-8005-3126ab86de3a" fill="none" version="1.1"><style>@font-face{font-family:&apos;Roboto&apos;;font-style:normal;font-weight:700;font-display:block;src:url(https://design.penpot.app/internal/gfonts/font/roboto/v32/KFOlCnqEu92Fr1MmWUlfCRc4EsA.woff2) format(&apos;woff2&apos;);unicode-range:U+0460-052F, U+1C80-1C8A, U+20B4, U+2DE0-2DFF, U+A640-A69F, U+FE2E-FE2F}@font-face{font-family:&apos;Roboto&apos;;font-style:normal;font-weight:700;font-display:block;src:url(https://design.penpot.app/internal/gfonts/font/roboto/v32/KFOlCnqEu92Fr1MmWUlfABc4EsA.woff2) format(&apos;woff2&apos;);unicode-range:U+0301, U+0400-045F, U+0490-0491, U+04B0-04B1, U+2116}@font-face{font-family:&apos;Roboto&apos;;font-style:normal;font-weight:700;font-display:block;src:url(https://design.penpot.app/internal/gfonts/font/roboto/v32/KFOlCnqEu92Fr1MmWUlfCBc4EsA.woff2) format(&apos;woff2&apos;);unicode-range:U+1F00-1FFF}@font-face{font-family:&apos;Roboto&apos;;font-style:normal;font-weight:700;font-display:block;src:url(https://design.penpot.app/internal/gfonts/font/roboto/v32/KFOlCnqEu92Fr1MmWUlfBxc4EsA.woff2) format(&apos;woff2&apos;);unicode-range:U+0370-0377, U+037A-037F, U+0384-038A, U+038C, U+038E-03A1, U+03A3-03FF}@font-face{font-family:&apos;Roboto&apos;;font-style:normal;font-weight:700;font-display:block;src:url(https://design.penpot.app/internal/gfonts/font/roboto/v32/KFOlCnqEu92Fr1MmWUlfCxc4EsA.woff2) format(&apos;woff2&apos;);unicode-range:U+0102-0103, U+0110-0111, U+0128-0129, U+0168-0169, U+01A0-01A1, U+01AF-01B0, U+0300-0301, U+0303-0304, U+0308-0309, U+0323, U+0329, U+1EA0-1EF9, U+20AB}@font-face{font-family:&apos;Roboto&apos;;font-style:normal;font-weight:700;font-display:block;src:url(https://design.penpot.app/internal/gfonts/font/roboto/v32/KFOlCnqEu92Fr1MmWUlfChc4EsA.woff2) format(&apos;woff2&apos;);unicode-range:U+0100-02BA, U+02BD-02C5, U+02C7-02CC, U+02CE-02D7, U+02DD-02FF, U+0304, U+0308, U+0329, U+1D00-1DBF, U+1E00-1E9F, U+1EF2-1EFF, U+2020, U+20A0-20AB, U+20AD-20C0, U+2113, U+2C60-2C7F, U+A720-A7FF}@font-face{font-family:&apos;Roboto&apos;;font-style:normal;font-weight:700;font-display:block;src:url(https://design.penpot.app/internal/gfonts/font/roboto/v32/KFOlCnqEu92Fr1MmWUlfBBc4.woff2) format(&apos;woff2&apos;);unicode-range:U+0000-00FF, U+0131, U+0152-0153, U+02BB-02BC, U+02C6, U+02DA, U+02DC, U+0304, U+0308, U+0329, U+2000-206F, U+20AC, U+2122, U+2191, U+2193, U+2212, U+2215, U+FEFF, U+FFFD}</style><g id="shape-2d71c175-ab4c-807d-8005-3126ab86de3a"><defs><clipPath id="frame-clip-2d71c175-ab4c-807d-8005-3126ab86de3a-render-1" class="frame-clip frame-clip-def"><rect rx="0" ry="0" width="1140" height="268"/></clipPath></defs><g clip-path="url(#frame-clip-2d71c175-ab4c-807d-8005-3126ab86de3a-render-1)"><g class="fills" id="fills-2d71c175-ab4c-807d-8005-3126ab86de3a"><rect rx="0" ry="0" width="1140" height="268" class="frame-background"/></g><g class="frame-children"><g id="shape-2d71c175-ab4c-807d-8005-3126ab86de3b"><g id="shape-2d71c175-ab4c-807d-8005-3126ab86de3c"><g id="shape-2d71c175-ab4c-807d-8005-3126ab86de3d"><path d="M240.512 72.199Zc-.409 0-.614-.205-.614-.614V67.24a2.728 2.728 0 0 0-2.195-2.675c-1.128-.229-16.157-.062-17.147.503-.498.286-.768.712-.809 1.276l-.356 5.303c-.024.368-.221 3.695.098 34.822 0 .499-.249.753-.748.761l-48.827.417c-.45 0-.635.224-.527.663 5.472 22.332 8.692 50.175 6.524 78.319-.032.417.156.601.565.552 15.215-1.841 26.992-2.986 42.314-3.436.466-.017.699.208.699.675v14.945s-.188.581-.564.614l-46.009 4.234a.442.442 0 0 0-.356.651c4.544 8.814 7.434 19.763 12.206 28.586.852 1.577-.011 3.979-4.798 1.577-29.229-14.668-56.101-49.722-56.101-93.383 0-58.503 47.497-106 106-106s106 47.497 106 106c0 43.579-23.456 74.992-55.791 93.383-5.004 2.38-5.752-.146-5.004-1.577 2.268-4.337 4.256-13.533 12.074-28.672.172-.336.07-.52-.306-.552l-46.267-4.296c-.458-.041-.683-.291-.675-.749l.013-14.945c0-.377.188-.557.564-.541 15.363.467 27.18 1.612 42.437 3.437.417.049.609-.135.577-.552-2.196-28.856-5.249-47.206 6.561-78.233.098-.466-.09-.7-.564-.7l-48.803-.417c-.523-.008-.785-.274-.785-.798V93.284c0-.507.258-.761.773-.761h17.811c.157.001-3.185-.065-3.079-.182.105-.118 3.648-.275 3.631-.431-.875-8.936.233-10.62 3.323-19.024.172-.458.017-.687-.466-.687h-21.379Z" style="fill: rgb(0, 104, 136); fill-opacity: 1;" class="fills" id="fills-2d71c175-ab4c-807d-8005-3126ab86de3d"/><g id="strokes-2d71c175-ab4c-807d-8005-3126ab86de3d" class="strokes"><path d="M240.512 72.199Zc-.409 0-.614-.205-.614-.614V67.24a2.728 2.728 0 0 0-2.195-2.675c-1.128-.229-16.157-.062-17.147.503-.498.286-.768.712-.809 1.276l-.356 5.303c-.024.368-.221 3.695.098 34.822 0 .499-.249.753-.748.761l-48.827.417c-.45 0-.635.224-.527.663 5.472 22.332 8.692 50.175 6.524 78.319-.032.417.156.601.565.552 15.215-1.841 26.992-2.986 42.314-3.436.466-.017.699.208.699.675v14.945s-.188.581-.564.614l-46.009 4.234a.442.442 0 0 0-.356.651c4.544 8.814 7.434 19.763 12.206 28.586.852 1.577-.011 3.979-4.798 1.577-29.229-14.668-56.101-49.722-56.101-93.383 0-58.503 47.497-106 106-106s106 47.497 106 106c0 43.579-23.456 74.992-55.791 93.383-5.004 2.38-5.752-.146-5.004-1.577 2.268-4.337 4.256-13.533 12.074-28.672.172-.336.07-.52-.306-.552l-46.267-4.296c-.458-.041-.683-.291-.675-.749l.013-14.945c0-.377.188-.557.564-.541 15.363.467 27.18 1.612 42.437 3.437.417.049.609-.135.577-.552-2.196-28.856-5.249-47.206 6.561-78.233.098-.466-.09-.7-.564-.7l-48.803-.417c-.523-.008-.785-.274-.785-.798V93.284c0-.507.258-.761.773-.761h17.811c.157.001-3.185-.065-3.079-.182.105-.118 3.648-.275 3.631-.431-.875-8.936.233-10.62 3.323-19.024.172-.458.017-.687-.466-.687h-21.379Z" style="fill: none; stroke-width: 16; stroke: rgb(0, 70, 105); stroke-opacity: 0;" class="stroke-shape"/></g></g><g transform="rotate(-.081 735.697 208.998)" class="text-container" id="shape-2d71c175-ab4c-807d-8005-3126ab86de3e"><defs><pattern patternUnits="userSpaceOnUse" x="469.897" y="187.003" width="531.609" height="42" id="fill-0-render-5-0"><rect width="531.609" height="42" style="fill: rgb(17, 19, 24); fill-opacity: 1;"/></pattern></defs><text x="469.897" y="229.003" dominant-baseline="ideographic" textLength="531.609" lengthAdjust="spacingAndGlyphs" style="text-transform: none; font-family: Roboto; letter-spacing: 6px; font-style: normal; font-weight: 700; white-space: pre; font-size: 36px; text-decoration: none solid rgb(17, 19, 24); direction: ltr; fill: rgb(17, 19, 24); fill-opacity: 1;" class="fills" id="fills-2d71c175-ab4c-807d-8005-3126ab86de3e">A Free Explorers project</text></g><g transform="rotate(-.081 722.31 111.552)" class="text-container" id="shape-2d71c175-ab4c-807d-8005-3126ab86de3f"><defs><pattern patternUnits="userSpaceOnUse" x="429" y="13.034" width="586.063" height="192" id="fill-0-render-6-0"><rect width="586.063" height="192" style="fill: rgb(0, 104, 136); fill-opacity: 1;"/></pattern></defs><text x="429" y="207.034" dominant-baseline="ideographic" textLength="586.063" lengthAdjust="spacingAndGlyphs" style="text-transform: none; font-family: Roboto; letter-spacing: 6px; font-style: normal; font-weight: 700; white-space: pre; font-size: 164px; text-decoration: none solid rgb(0, 104, 136); direction: ltr; fill: rgb(0, 104, 136); fill-opacity: 1;" class="fills" id="fills-2d71c175-ab4c-807d-8005-3126ab86de3f">Veshell</text></g></g></g></g></g></g></svg>